<?xml version="1.0" standalone="no"?>
<!DOCTYPE svg PUBLIC "-//W3C//DTD SVG 20010904//EN"
 "http://www.w3.org/TR/2001/REC-SVG-20010904/DTD/svg10.dtd">
<svg version="1.0" xmlns="http://www.w3.org/2000/svg"
 width="260.000000pt" height="260.000000pt" viewBox="0 0 260.000000 260.000000"
 preserveAspectRatio="xMidYMid meet">
<metadata>
Created by potrace 1.14, written by Peter Selinger 2001-2017
</metadata>
<g transform="translate(0.000000,260.000000) scale(0.100000,-0.100000)"
fill="#000000" stroke="none">
<path d="M2453 2443 c-3 -69 -8 -79 -36 -74 -5 1 -6 -3 -2 -9 3 -5 0 -10 -7
-10 -8 -1 -6 -6 6 -15 10 -8 22 -12 26 -10 4 2 7 -2 7 -10 0 -12 -4 -12 -21 1
-11 8 -30 14 -41 14 -16 0 -17 2 -5 10 9 6 10 10 3 10 -20 0 -24 -18 -6 -29
17 -10 17 -10 1 -11 -10 0 -18 -4 -18 -10 0 -21 -2 -25 -15 -33 -8 -4 -12 -14
-9 -21 3 -8 1 -17 -5 -20 -6 -4 -7 -14 -4 -24 4 -13 2 -13 -10 3 -16 20 -13
40 4 30 5 -4 9 -2 9 3 0 6 -8 13 -17 16 -10 4 -14 4 -10 0 4 -4 2 -13 -4 -21
-9 -10 -8 -17 2 -30 13 -15 12 -15 -8 -5 -12 7 -24 17 -27 24 -3 7 -3 1 0 -13
7 -36 -20 -46 -42 -16 -15 20 -16 20 -9 2 3 -11 7 -24 8 -30 1 -5 9 -13 17
-17 9 -4 5 -6 -12 -5 -15 1 -25 4 -23 7 2 4 -2 7 -10 7 -9 0 -11 -5 -6 -16 5
-9 6 -22 3 -30 -3 -9 0 -11 8 -6 8 5 11 4 6 -3 -4 -6 -13 -9 -22 -5 -11 4 -12
9 -4 18 8 10 8 15 -1 21 -8 4 -9 3 -5 -5 4 -6 0 -14 -8 -17 -13 -5 -12 -9 6
-23 16 -14 18 -20 8 -26 -9 -6 -11 -4 -5 5 6 9 2 10 -15 5 -15 -5 -20 -4 -16
4 4 6 2 11 -3 11 -18 0 -12 -18 10 -34 22 -15 22 -15 1 -13 -11 0 -19 4 -16 8
2 4 -3 10 -12 13 -9 3 -12 2 -9 -5 9 -13 -27 -8 -38 6 -5 6 -5 -1 -1 -15 6
-22 5 -23 -9 -12 -14 12 -16 11 -12 -7 2 -12 -1 -21 -6 -21 -6 0 -7 -4 -4 -10
3 -5 1 -10 -6 -10 -9 0 -9 -3 0 -14 7 -9 8 -17 2 -20 -5 -3 -12 -1 -14 4 -3 6
-4 5 -2 -2 1 -7 8 -12 14 -10 21 4 11 -16 -10 -21 -14 -4 -18 -10 -13 -19 4
-7 4 -10 -1 -6 -4 4 -15 2 -23 -5 -13 -9 -14 -9 -8 1 4 6 3 12 -3 12 -6 0 -8
8 -5 18 5 15 4 15 -5 1 -6 -9 -9 -26 -6 -38 2 -11 -1 -21 -7 -21 -5 0 -8 6 -5
13 3 7 -2 22 -10 32 -15 19 -15 19 -8 -4 5 -17 4 -21 -5 -16 -9 5 -9 3 -2 -11
11 -22 5 -47 -9 -38 -5 3 -9 0 -9 -6 0 -6 -5 -8 -12 -4 -6 4 -8 3 -4 -4 3 -6
16 -9 27 -7 21 4 21 4 4 -15 -19 -21 -30 -27 -21 -11 6 10 -24 25 -32 16 -3
-3 0 -5 7 -5 7 0 10 -4 7 -9 -3 -5 1 -14 9 -21 8 -7 15 -16 15 -21 0 -5 -14 5
-31 23 -17 18 -27 26 -23 18 17 -31 12 -44 -7 -20 -17 22 -19 23 -17 5 2 -11
8 -24 13 -28 6 -5 4 -7 -5 -4 -8 2 -15 10 -15 17 0 16 -28 21 -46 8 -11 -8
-10 -9 3 -5 10 4 22 -3 32 -19 9 -13 12 -24 7 -24 -5 0 -12 7 -15 16 -3 8 -11
12 -17 9 -7 -5 -4 -14 8 -28 16 -19 16 -20 1 -8 -23 17 -23 4 0 -23 14 -17 14
-18 1 -8 -14 10 -18 10 -23 -3 -3 -8 0 -15 6 -15 6 0 9 -3 6 -6 -4 -3 -16 0
-28 6 -16 9 -20 9 -15 1 4 -8 -2 -10 -19 -7 -15 3 -24 1 -21 -5 8 -12 -1 -11
-28 2 -19 9 -19 8 3 -11 19 -16 20 -20 6 -16 -13 5 -17 2 -13 -8 3 -8 1 -17
-6 -20 -9 -3 -8 -8 3 -15 11 -8 12 -11 2 -11 -8 0 -10 -5 -6 -12 4 -7 4 -10
-1 -6 -4 4 -14 3 -22 -4 -11 -9 -11 -14 4 -32 13 -15 14 -17 2 -8 -9 6 -20 8
-24 4 -5 -4 -5 -1 -1 6 4 6 2 12 -3 12 -15 0 -14 -27 2 -34 6 -3 2 -3 -10 -1
-12 3 -24 1 -27 -4 -4 -6 -13 -8 -21 -5 -9 4 -13 -1 -11 -13 2 -10 1 -12 -1
-5 -3 6 -9 12 -14 12 -6 0 -7 6 -3 13 4 6 -2 4 -13 -6 -11 -9 -22 -15 -25 -12
-2 3 -5 -2 -5 -10 0 -8 3 -12 7 -10 3 2 12 -5 18 -16 12 -19 11 -19 -8 -9 -13
7 -20 7 -21 0 -1 -5 -2 -16 -3 -22 -1 -7 -10 -12 -21 -10 -19 2 -19 2 -1 -9
14 -9 20 -8 27 2 4 7 5 17 3 21 -9 14 13 8 26 -7 11 -13 10 -14 -5 -9 -11 5
-16 4 -12 -3 7 -11 -40 -38 -60 -34 -12 2 -17 -11 -14 -31 2 -12 -9 -9 -25 6
-9 9 -10 17 -4 21 5 3 10 0 10 -7 0 -8 5 -6 11 5 6 10 8 21 5 24 -3 4 -6 1 -6
-6 0 -7 -4 -10 -9 -6 -5 3 -12 1 -16 -5 -4 -6 -10 -8 -14 -6 -4 3 -8 -1 -8 -9
0 -8 4 -12 8 -10 4 3 10 -2 13 -11 3 -8 2 -13 -3 -10 -17 11 -20 -24 -3 -34
15 -11 15 -11 -2 -6 -13 5 -17 2 -12 -9 5 -13 2 -14 -15 -4 -16 8 -20 8 -14 0
4 -8 -2 -10 -20 -7 -22 4 -24 2 -15 -9 8 -9 8 -15 0 -20 -5 -3 -13 1 -16 9 -5
12 -10 10 -30 -11 -13 -14 -21 -29 -19 -33 3 -5 0 -11 -5 -13 -6 -3 -5 -4 2
-2 7 1 12 8 10 14 -1 7 2 10 7 7 5 -4 4 -16 -2 -31 -7 -13 -13 -20 -15 -15 -9
24 -20 7 -12 -19 8 -30 -2 -62 -14 -42 -4 6 -12 8 -18 5 -6 -4 -5 -9 3 -15 12
-7 12 -10 0 -21 -9 -8 -11 -9 -7 -1 3 6 2 15 -4 18 -6 4 -8 16 -5 28 4 13 3
17 -2 11 -4 -6 -18 -14 -30 -18 -15 -5 -20 -12 -16 -24 4 -12 0 -11 -14 5 -16
18 -22 20 -33 10 -12 -10 -12 -9 -3 3 13 19 13 50 -1 50 -6 0 -5 5 2 12 17 17
15 28 -5 28 -15 0 -16 -2 -3 -10 8 -5 10 -10 4 -10 -21 0 -24 14 -7 32 16 18
16 18 -3 12 -10 -4 -22 -12 -26 -18 -4 -6 -6 -1 -6 11 2 14 7 19 18 16 13 -4
13 -3 0 5 -10 8 -18 8 -27 0 -7 -6 -13 -7 -13 -4 0 4 -9 2 -20 -4 -16 -9 -19
-8 -13 6 4 12 3 15 -5 10 -18 -11 -14 0 5 15 14 12 16 12 8 0 -6 -10 -4 -12 5
-6 8 5 11 4 7 -2 -3 -5 0 -10 8 -10 12 0 12 3 3 16 -7 9 -13 17 -14 19 -1 2
-12 -1 -23 -8 -15 -7 -27 -8 -39 -1 -15 9 -14 10 7 8 18 -1 24 4 27 21 3 16
-1 22 -14 22 -9 0 -13 -4 -7 -8 6 -4 11 -14 13 -22 2 -11 -2 -10 -12 3 -16 20
-11 51 7 40 6 -3 7 -1 3 6 -5 8 -12 9 -20 2 -8 -7 -17 -6 -26 1 -13 8 -12 9 2
5 9 -3 19 0 22 8 3 10 0 12 -11 8 -12 -5 -14 -3 -8 8 8 12 6 12 -8 0 -10 -8
-20 -11 -24 -7 -3 3 -2 6 4 6 6 0 13 6 16 13 3 8 -1 14 -9 14 -7 0 -11 -4 -9
-8 3 -4 -2 -10 -11 -13 -13 -5 -15 -2 -11 13 3 13 1 18 -9 14 -7 -2 -10 -11
-8 -18 3 -7 0 -16 -7 -21 -8 -5 -10 -3 -5 5 5 7 0 21 -10 32 -22 25 -26 49
-11 68 10 12 9 14 -5 8 -10 -3 -18 -3 -19 1 -2 26 -10 57 -16 61 -3 3 -4 -3
-1 -14 3 -11 -1 -26 -8 -33 -11 -10 -12 -6 -9 16 2 20 -1 29 -11 29 -9 0 -10
-4 -5 -11 6 -7 4 -19 -5 -30 -8 -11 -14 -15 -14 -10 0 6 5 15 12 22 9 9 5 11
-19 8 -22 -2 -30 1 -26 9 2 7 -5 22 -17 33 -14 13 -18 22 -11 27 6 3 11 11 11
16 0 6 -5 7 -12 3 -7 -5 -8 -3 -4 5 5 7 15 10 25 7 14 -5 13 -4 -2 8 -19 15
-24 31 -5 20 7 -4 8 -3 4 5 -10 15 -29 3 -22 -15 3 -8 1 -14 -4 -14 -6 0 -10
6 -10 13 0 6 -7 20 -14 29 -12 16 -14 16 -34 -2 -20 -19 -20 -19 -18 14 2 26
-1 33 -12 32 -9 -2 -19 -11 -24 -22 -7 -15 -7 -14 -3 6 2 14 5 29 5 33 0 5 4
6 9 2 5 -3 13 -1 16 5 4 6 3 10 -2 9 -20 -4 -24 2 -12 18 12 14 10 14 -14 -2
-32 -20 -44 -15 -27 12 11 17 11 17 6 -2 -6 -19 -6 -19 9 -1 17 22 10 42 -9
27 -18 -15 -28 -1 -13 18 11 14 10 14 -5 2 -19 -14 -53 -8 -43 9 3 5 1 10 -4
10 -6 0 -11 -4 -11 -10 0 -5 0 -13 0 -17 0 -5 5 -9 10 -9 6 -1 12 -3 15 -4 3
-1 10 -3 15 -4 6 0 10 -4 10 -8 0 -5 0 -11 0 -15 0 -3 -10 2 -22 13 -21 19
-21 19 -15 -1 7 -18 6 -19 -6 -3 -8 10 -17 15 -20 12 -7 -7 -1 72 7 84 3 5 -1
9 -7 9 -8 0 -12 -11 -11 -27 1 -15 -3 -34 -8 -41 -8 -11 -9 -10 -4 4 3 11 0
20 -9 24 -9 3 -15 10 -14 17 3 24 -1 37 -10 31 -15 -9 -25 15 -12 28 9 9 10 7
5 -7 -5 -13 -4 -17 4 -12 6 3 15 -2 21 -11 9 -16 10 -16 11 -1 0 9 -6 18 -12
20 -9 3 -8 12 5 34 l18 29 -20 -23 c-13 -15 -21 -18 -24 -10 -4 10 -6 10 -6 1
-1 -14 -31 -18 -31 -5 0 4 -4 13 -8 20 -10 15 -42 6 -38 -11 1 -7 1 -9 -1 -4
-3 4 -10 4 -16 1 -9 -5 -8 -3 0 6 14 15 -2 54 -18 45 -5 -4 -8 -1 -7 7 2 7 -2
12 -8 11 -6 -1 -11 4 -11 12 0 8 4 12 9 9 4 -3 8 -1 8 5 0 6 8 7 17 4 15 -6
15 -7 -2 -13 -11 -4 -14 -9 -8 -13 6 -4 18 2 27 12 17 19 18 19 -38 23 -14 1
-22 6 -20 10 3 4 1 8 -5 8 -5 0 -12 -6 -15 -12 -3 -7 -3 1 -1 17 4 28 3 29
-10 11 -14 -18 -20 -15 -15 9 1 5 -7 15 -16 22 -10 7 -13 13 -8 13 16 0 13 28
-3 34 -8 3 -11 11 -8 16 4 6 1 9 -6 8 -12 -3 -14 1 -18 35 -1 9 -4 8 -10 -2
-5 -7 -14 -10 -20 -7 -6 4 -8 12 -5 18 4 6 -2 6 -15 -1 -11 -7 -21 -14 -21
-17 0 -3 4 -2 10 1 6 3 7 -1 3 -10 -3 -9 -9 -12 -12 -7 -3 5 -14 8 -23 7 -11
-2 -15 2 -11 11 3 8 0 14 -6 14 -7 0 -10 -324 -11 -1105 l0 -1105 1300 0 1300
0 0 1235 0 1235 -59 0 c-48 0 -59 -3 -57 -16 0 -9 -5 -19 -11 -21 -7 -3 -13 0
-13 7 0 6 4 8 10 5 6 -3 7 1 4 9 -10 25 -20 19 -21 -11z m28 -37 c5 3 9 0 9
-5 0 -6 -5 -11 -11 -11 -8 0 -7 -5 1 -15 11 -13 10 -14 -5 -9 -12 5 -16 4 -12
-3 4 -6 0 -14 -9 -17 -24 -9 -36 -7 -29 4 4 6 11 8 16 5 8 -6 13 8 10 28 0 4
3 7 9 7 5 0 8 6 6 13 -1 6 -1 9 1 4 3 -4 9 -5 14 -1z m-2367 -225 c-2 -3 5
-15 17 -27 12 -13 19 -30 16 -38 -4 -9 1 -20 11 -25 9 -5 14 -13 9 -17 -4 -4
-16 3 -27 16 -15 18 -17 26 -9 37 9 11 8 12 -5 7 -9 -3 -16 -1 -16 6 0 6 -5 8
-12 4 -8 -5 -7 -1 1 10 13 16 13 17 -4 14 -10 -1 -20 2 -22 8 -2 7 6 11 21 10
13 0 22 -3 20 -5z m31 -121 c3 -5 1 -10 -4 -10 -6 0 -11 5 -11 10 0 6 2 10 4
10 3 0 8 -4 11 -10z m1955 -19 c0 -5 -7 -17 -16 -26 -9 -9 -16 -28 -16 -42 0
-21 -2 -23 -10 -10 -5 11 -5 24 1 36 6 10 7 22 3 26 -4 5 -1 5 6 1 7 -4 15 -1
18 8 7 18 14 21 14 7z m-1770 -122 c0 -5 -4 -9 -8 -9 -5 0 -9 7 -9 15 0 8 4
12 9 9 4 -3 8 -9 8 -15z m215 -199 c-3 -5 -12 -10 -18 -10 -7 0 -6 4 3 10 19
12 23 12 15 0z m28 -45 c4 -8 3 -16 -1 -19 -4 -3 -9 4 -9 15 -2 23 3 25 10 4z
m1159 -48 c-9 -10 -8 -17 1 -27 10 -12 9 -12 -4 -2 -9 7 -15 22 -14 35 3 32 4
32 17 19 8 -8 8 -15 0 -25z m-1097 14 c7 -12 -12 -24 -25 -16 -11 7 -4 25 10
25 5 0 11 -4 15 -9z m1135 5 c0 -3 -4 -8 -10 -11 -5 -3 -10 -1 -10 4 0 6 5 11
10 11 6 0 10 -2 10 -4z m-1125 -54 c-3 -3 -11 0 -18 7 -9 10 -8 11 6 5 10 -3
15 -9 12 -12z m891 -128 c2 -12 -1 -13 -12 -3 -7 6 -11 16 -8 21 7 11 17 3 20
-18z m74 22 c0 -2 -7 -7 -16 -10 -8 -3 -12 -2 -9 4 6 10 25 14 25 6z m-785
-105 c3 -5 2 -12 -3 -15 -5 -3 -9 1 -9 9 0 17 3 19 12 6z m510 -141 c-3 -4 -2
-10 2 -13 5 -2 2 -2 -4 -1 -7 2 -13 -2 -13 -8 0 -6 -3 -8 -6 -5 -4 4 -2 13 4
20 7 8 8 18 4 22 -4 5 -1 5 6 1 7 -4 10 -11 7 -16z m-35 -23 c0 -7 -4 -6 -10
3 -6 10 -10 11 -10 3 0 -7 -5 -13 -11 -13 -8 0 -8 5 1 15 13 16 30 11 30 -8z
m-133 -137 c-1 -21 -10 -18 -13 5 -1 8 2 15 6 15 5 0 8 -9 7 -20z"/>
<path d="M2335 2340 c-3 -5 -1 -10 4 -10 6 0 11 5 11 10 0 6 -2 10 -4 10 -3 0
-8 -4 -11 -10z"/>
<path d="M2332 2311 c2 -25 -4 -41 -14 -35 -7 4 -8 3 -4 -4 10 -17 14 -15 30
16 12 24 13 29 1 29 -8 0 -14 -3 -13 -6z"/>
<path d="M35 2209 c-4 -6 -5 -12 -2 -15 2 -3 7 2 10 11 7 17 1 20 -8 4z"/>
<path d="M2235 2210 c-3 -5 -1 -10 5 -10 6 0 8 -5 4 -12 -4 -7 -3 -8 4 -4 6 4
9 13 5 21 -6 18 -10 19 -18 5z"/>
<path d="M2190 2181 c0 -5 7 -12 16 -15 14 -5 15 -4 4 9 -14 17 -20 19 -20 6z"/>
<path d="M230 2060 c8 -5 20 -10 25 -10 6 0 3 5 -5 10 -8 5 -19 10 -25 10 -5
0 -3 -5 5 -10z"/>
<path d="M282 1970 c9 -14 14 -16 20 -7 4 7 8 17 8 22 0 6 -5 3 -10 -5 -6 -10
-10 -11 -10 -2 0 6 -5 12 -10 12 -6 0 -5 -8 2 -20z"/>
<path d="M1999 1958 c0 -7 -2 -21 -4 -31 -3 -14 0 -16 10 -7 7 6 11 20 8 30
-6 23 -13 26 -14 8z"/>
<path d="M346 1938 c3 -5 10 -6 15 -3 13 9 11 12 -6 12 -8 0 -12 -4 -9 -9z"/>
<path d="M1910 1870 c0 -5 5 -10 11 -10 5 0 7 5 4 10 -3 6 -8 10 -11 10 -2 0
-4 -4 -4 -10z"/>
<path d="M1878 1853 c7 -3 16 -2 19 1 4 3 -2 6 -13 5 -11 0 -14 -3 -6 -6z"/>
<path d="M405 1840 c3 -5 8 -10 11 -10 2 0 4 5 4 10 0 6 -5 10 -11 10 -5 0 -7
-4 -4 -10z"/>
<path d="M1755 1709 c-10 -15 3 -25 16 -12 7 7 7 13 1 17 -6 3 -14 1 -17 -5z"/>
<path d="M1646 1614 c-4 -9 -13 -14 -22 -10 -8 3 -12 2 -9 -4 3 -6 13 -10 21
-10 8 0 12 -5 9 -11 -4 -6 -13 -8 -21 -5 -8 3 -11 0 -7 -10 5 -14 7 -14 21 0
8 8 16 26 18 40 3 30 -1 33 -10 10z"/>
<path d="M679 1573 c-7 -10 -9 -15 -5 -11 5 5 18 -6 28 -23 11 -17 22 -28 26
-24 4 4 1 10 -5 12 -7 3 -13 9 -13 14 0 6 4 8 8 5 5 -3 9 1 9 9 0 8 -3 14 -6
13 -3 0 -13 0 -21 1 -13 1 -13 2 0 11 8 5 10 10 4 10 -6 0 -18 -8 -25 -17z"/>
<path d="M1570 1539 c0 -5 5 -7 10 -4 6 3 10 8 10 11 0 2 -4 4 -10 4 -5 0 -10
-5 -10 -11z"/>
<path d="M1550 1523 c0 -19 28 -22 42 -5 11 15 11 15 -3 5 -12 -10 -18 -10
-27 -1 -8 8 -12 9 -12 1z"/>
<path d="M829 1448 c-12 -40 9 -69 31 -43 7 8 10 16 6 16 -3 1 -10 3 -16 4 -5
1 -13 3 -17 4 -5 1 -1 6 7 11 10 6 11 10 3 10 -7 0 -13 -1 -14 -2z m31 -34 c0
-8 -19 -13 -24 -6 -3 5 1 9 9 9 8 0 15 -2 15 -3z"/>
<path d="M935 1380 c3 -5 8 -10 11 -10 2 0 4 5 4 10 0 6 -5 10 -11 10 -5 0 -7
-4 -4 -10z"/>
<path d="M1445 1380 c3 -5 8 -10 11 -10 2 0 4 5 4 10 0 6 -5 10 -11 10 -5 0
-7 -4 -4 -10z"/>
<path d="M1353 1310 c-1 -11 2 -20 5 -20 4 0 8 9 9 20 1 11 -2 20 -5 20 -4 0
-8 -9 -9 -20z"/>
<path d="M1076 1238 c3 -5 10 -6 15 -3 13 9 11 12 -6 12 -8 0 -12 -4 -9 -9z"/>
<path d="M1106 1141 c-3 -4 1 -16 8 -26 9 -13 15 -15 20 -6 4 6 0 14 -9 17
-13 6 -14 8 -3 15 9 6 9 9 1 9 -6 0 -14 -4 -17 -9z"/>
<path d="M1205 1120 c3 -5 11 -10 16 -10 6 0 7 5 4 10 -3 6 -11 10 -16 10 -6
0 -7 -4 -4 -10z"/>
</g>
</svg>
